<svg width="131" height="120" viewBox="0 0 131 120" fill="none" xmlns="http://www.w3.org/2000/svg">
<circle cx="71" cy="60" r="60" fill="white"/>
<path d="M3 84V37.4545H36.5455V47.6364H15.6364V55.6364H34.8182V65.8182H15.6364V73.8182H36.4545V84H3ZM61.5398 84.6364C57.964 84.6364 54.7898 84.0076 52.017 82.75C49.2595 81.4773 47.0852 79.7273 45.4943 77.5C43.9186 75.2727 43.1155 72.7121 43.0852 69.8182H55.358C55.4034 71.4242 56.0246 72.7045 57.2216 73.6591C58.4337 74.6136 59.8731 75.0909 61.5398 75.0909C62.8277 75.0909 63.964 74.8182 64.9489 74.2727C65.9337 73.7121 66.7064 72.9242 67.267 71.9091C67.8277 70.8939 68.1004 69.7121 68.0852 68.3636C68.1004 67 67.8277 65.8182 67.267 64.8182C66.7064 63.803 65.9337 63.0227 64.9489 62.4773C63.964 61.9167 62.8277 61.6364 61.5398 61.6364C60.2064 61.6364 58.9716 61.9621 57.8352 62.6136C56.714 63.25 55.8883 64.1364 55.358 65.2727L44.267 63.0909L46.0852 37.4545H77.358V47.5455H56.4489L55.5398 57.8182H55.8125C56.5398 56.4091 57.7973 55.2424 59.5852 54.3182C61.3731 53.3788 63.4489 52.9091 65.8125 52.9091C68.5852 52.9091 71.0549 53.553 73.2216 54.8409C75.4034 56.1288 77.1231 57.9091 78.3807 60.1818C79.6534 62.4394 80.2822 65.0455 80.267 68C80.2822 71.2424 79.5095 74.1212 77.9489 76.6364C76.4034 79.1364 74.2292 81.0985 71.4261 82.5227C68.6231 83.9318 65.3277 84.6364 61.5398 84.6364ZM103.534 84H85.625V37.4545H103.352C108.14 37.4545 112.277 38.3864 115.761 40.25C119.261 42.0985 121.958 44.7651 123.852 48.25C125.761 51.7197 126.716 55.8788 126.716 60.7273C126.716 65.5758 125.769 69.7424 123.875 73.2273C121.981 76.697 119.299 79.3636 115.83 81.2273C112.36 83.0758 108.261 84 103.534 84ZM98.2614 73.2727H103.08C105.383 73.2727 107.345 72.9015 108.966 72.1591C110.602 71.4167 111.845 70.1364 112.693 68.3182C113.557 66.5 113.989 63.9697 113.989 60.7273C113.989 57.4848 113.549 54.9545 112.67 53.1364C111.807 51.3182 110.534 50.0379 108.852 49.2955C107.186 48.553 105.14 48.1818 102.716 48.1818H98.2614V73.2727Z" fill="#536493"/>
</svg>
